<svg xmlns="http://www.w3.org/2000/svg" width="64" height="64" id="hashtag-large" data-supported-dps="64x64">
  <circle cx="32" cy="32" r="32" fill="#9db3c8"/>
  <circle cx="32" cy="32" r="24" fill="#f9fafb"/>
  <circle cx="32" cy="32" r="21" fill="#dce6f1"/>
  <path d="M45.5 28a1.5 1.5 0 000-3h-6.22l.72-6.32a1.51 1.51 0 10-3-.34L36.29 25h-7l.71-6.32a1.51 1.51 0 10-3-.34L26.29 25H19.5a1.5 1.5 0 000 3H26l-.89 8H18.5a1.5 1.5 0 000 3h6.22L24 45.32a1.48 1.48 0 102.95.34l.76-6.66h7L34 45.32a1.51 1.51 0 103 .34l.71-6.66h6.79a1.5 1.5 0 000-3h-6.45l.89-8zm-10.44 8h-7l.94-8h7z" fill="#38434f"/>
</svg>
